<svg xmlns="http://www.w3.org/2000/svg"  viewBox="0 0 50 50" width="50px" height="50px" baseProfile="basic"><polygon fill="#ff64bd" points="8,19 4,19 4,1 37,1 37,13 33,13 33,5 8,5"/><polygon fill="#ff64bd" points="37,48.446 24.5,41.304 12,48.446 12,10 16,10 16,41.554 24.5,36.696 33,41.554 33,33.348 37,33.348"/><rect width="4" height="4" x="12" y="10" fill="#d8007c"/><rect width="4" height="12" x="33" y="17" fill="#2dea55"/><rect width="12" height="4" x="29" y="21" fill="#2dea55"/><path fill="#2dea55" d="M35,35c-6.617,0-12-5.383-12-12s5.383-12,12-12s12,5.383,12,12S41.617,35,35,35z M35,15 c-4.411,0-8,3.589-8,8s3.589,8,8,8s8-3.589,8-8S39.411,15,35,15z"/><path fill="#0cbc35" d="M35,15c0.692,0,1.359,0.097,2,0.263v-4.083C36.348,11.071,35.683,11,35,11s-1.348,0.071-2,0.181 v4.083C33.641,15.097,34.308,15,35,15z"/><path fill="#0cbc35" d="M35,31c-0.692,0-1.359-0.097-2-0.263v4.083C33.652,34.929,34.317,35,35,35s1.348-0.071,2-0.181 v-4.083C36.359,30.903,35.692,31,35,31z"/></svg>