<?xml version="1.0" encoding="UTF-8"?> <svg xmlns="http://www.w3.org/2000/svg" width="241" height="46" viewBox="0 0 241 46" fill="none"> <path d="M54.9076 12.2256H61.6908L66.8205 27.3159H66.8986L71.7549 12.2256H78.5381V34.1644H74.0203V18.6054H73.9552L68.5781 34.1514H64.8545L59.4774 18.7617H59.4123V34.1514H54.8945V12.2256H54.9076Z" fill="#292B4B"></path> <path d="M88.5764 34.5546C87.3265 34.5546 86.2068 34.3593 85.1913 33.9556C84.1888 33.552 83.3425 32.9921 82.6394 32.25C81.9494 31.5079 81.4026 30.6355 81.025 29.6069C80.6474 28.5783 80.4521 27.4586 80.4521 26.2217C80.4521 25.0369 80.6474 23.9302 81.038 22.9016C81.4286 21.873 81.9754 20.9876 82.6915 20.2455C83.4076 19.5033 84.2669 18.9044 85.2564 18.4747C86.2459 18.0451 87.3525 17.8237 88.5634 17.8237C89.8393 17.8237 90.959 18.0581 91.9224 18.5268C92.8989 18.9955 93.7061 19.6335 94.3441 20.4147C94.9951 21.209 95.4768 22.1204 95.8023 23.162C96.1278 24.2036 96.297 25.2973 96.297 26.417C96.297 26.5602 96.297 26.7034 96.297 26.8336C96.297 26.9638 96.284 27.1071 96.271 27.2503H84.8137C84.8788 28.6695 85.2303 29.685 85.8943 30.323C86.5453 30.961 87.4958 31.2735 88.7196 31.2735C89.6049 31.2735 90.3601 31.0521 90.998 30.6095C91.636 30.1668 92.0266 29.6981 92.1698 29.2163H96.0106C95.3987 31.1172 94.4482 32.4844 93.1853 33.3046C91.9094 34.1379 90.3731 34.5546 88.5764 34.5546ZM91.9224 24.503C91.7141 23.3963 91.3496 22.563 90.8288 21.9902C90.308 21.4173 89.5138 21.1308 88.4462 21.1308C87.7301 21.1308 87.1442 21.248 86.6885 21.4824C86.2328 21.7167 85.8683 22.0032 85.5949 22.3547C85.3215 22.7063 85.1262 23.0708 85.009 23.4614C84.8918 23.852 84.8267 24.2036 84.8137 24.503H91.9224V24.503Z" fill="#292B4B"></path> <path d="M101.649 21.5613H96.4279V18.2803H111.231V21.5613H106.01V34.1518H101.649V21.5613Z" fill="#292B4B"></path> <path d="M113.197 18.2666H117.351V20.2977H117.416C117.949 19.4384 118.626 18.8134 119.447 18.4228C120.267 18.0322 121.165 17.8369 122.155 17.8369C123.405 17.8369 124.485 18.0713 125.384 18.54C126.282 19.0087 127.037 19.6337 127.623 20.4149C128.222 21.1961 128.652 22.0945 128.938 23.1361C129.224 24.1647 129.368 25.2454 129.368 26.3781C129.368 27.4457 129.224 28.4613 128.938 29.4508C128.652 30.4404 128.222 31.2997 127.636 32.0679C127.05 32.823 126.321 33.435 125.449 33.8777C124.576 34.3334 123.561 34.5547 122.389 34.5547C121.4 34.5547 120.501 34.3594 119.668 33.9558C118.835 33.5522 118.158 32.9663 117.624 32.1851H117.559V39.7107H113.197V18.2666V18.2666ZM121.217 31.2997C121.933 31.2997 122.532 31.1565 123.014 30.87C123.496 30.5836 123.886 30.206 124.186 29.7503C124.485 29.2946 124.694 28.7608 124.811 28.1488C124.928 27.5499 124.993 26.9119 124.993 26.2609C124.993 25.6229 124.928 24.998 124.798 24.386C124.668 23.7741 124.446 23.2272 124.134 22.7455C123.821 22.2637 123.431 21.8731 122.949 21.5737C122.467 21.2742 121.881 21.131 121.178 21.131C120.462 21.131 119.863 21.2742 119.382 21.5737C118.9 21.8731 118.509 22.2507 118.21 22.7195C117.91 23.1882 117.702 23.735 117.585 24.36C117.468 24.9849 117.403 25.6099 117.403 26.2479C117.403 26.8989 117.468 27.5369 117.598 28.1358C117.728 28.7347 117.949 29.2686 118.249 29.7373C118.548 30.193 118.939 30.5706 119.421 30.857C119.902 31.1565 120.501 31.2997 121.217 31.2997Z" fill="#292B4B"></path> <path d="M136.151 34.5554C135.396 34.5554 134.68 34.4642 134.029 34.2819C133.378 34.0997 132.805 33.8132 132.31 33.4226C131.816 33.032 131.438 32.5373 131.165 31.9514C130.891 31.3524 130.748 30.6493 130.748 29.8291C130.748 28.9307 130.904 28.1885 131.23 27.6026C131.542 27.0167 131.959 26.548 132.454 26.2095C132.961 25.8579 133.534 25.5975 134.172 25.4283C134.823 25.259 135.461 25.1158 136.125 25.0116C136.776 24.9075 137.427 24.8294 138.065 24.7643C138.703 24.6992 139.263 24.608 139.758 24.4908C140.252 24.3737 140.643 24.1914 140.929 23.957C141.216 23.7226 141.346 23.3841 141.333 22.9284C141.333 22.4727 141.255 22.1082 141.099 21.8217C140.942 21.5353 140.734 21.3139 140.487 21.1577C140.226 21.0014 139.94 20.8973 139.601 20.8452C139.263 20.7931 138.898 20.7671 138.508 20.7671C137.648 20.7671 136.971 20.9494 136.477 21.3139C135.982 21.6785 135.695 22.3035 135.617 23.1628H131.256C131.321 22.1602 131.568 21.3139 132.024 20.6239C132.48 19.9338 133.053 19.387 133.743 18.9833C134.433 18.5797 135.214 18.2802 136.073 18.111C136.932 17.9417 137.818 17.8506 138.716 17.8506C139.51 17.8506 140.317 17.9027 141.138 18.0198C141.958 18.137 142.7 18.3584 143.377 18.6839C144.054 19.0094 144.601 19.4781 145.031 20.064C145.46 20.6629 145.682 21.4311 145.682 22.3686V30.6363C145.682 31.3524 145.721 32.0425 145.799 32.6935C145.877 33.3445 146.02 33.8393 146.228 34.1648H141.802C141.724 33.9174 141.658 33.67 141.606 33.4096C141.554 33.1492 141.515 32.8888 141.502 32.6284C140.812 33.3445 139.992 33.8523 139.042 34.1387C138.104 34.4121 137.141 34.5554 136.151 34.5554ZM137.779 31.6649C138.638 31.6649 139.302 31.5217 139.771 31.2352C140.239 30.9488 140.591 30.6103 140.812 30.2067C141.034 29.803 141.177 29.3994 141.229 28.9958C141.281 28.5922 141.307 28.2536 141.307 28.0063V26.3787C141.125 26.548 140.903 26.6652 140.63 26.7563C140.37 26.8475 140.07 26.9256 139.745 26.9907C139.419 27.0558 139.081 27.1079 138.729 27.1469C138.378 27.186 138.039 27.2381 137.687 27.3032C137.336 27.3683 137.01 27.4464 136.698 27.5506C136.386 27.6547 136.125 27.7979 135.878 27.9672C135.643 28.1365 135.448 28.3578 135.305 28.6312C135.162 28.8916 135.084 29.2302 135.084 29.6468C135.084 30.0504 135.149 30.3889 135.305 30.6493C135.448 30.9097 135.643 31.105 135.891 31.2613C136.138 31.4175 136.425 31.5217 136.75 31.5868C137.102 31.6389 137.427 31.6649 137.779 31.6649Z" fill="#292B4B"></path> <path d="M148.506 18.2671H152.867V24.048H159.039V18.2671H163.4V34.1516H159.039V27.4853H152.867V34.1516H148.506V18.2671Z" fill="#292B4B"></path> <path d="M166.733 18.2671H181.328V34.1516H176.967V21.5612H171.095V34.1516H166.733V18.2671V18.2671Z" fill="#292B4B"></path> <path d="M188.828 34.5554C188.073 34.5554 187.357 34.4642 186.706 34.2819C186.055 34.0997 185.482 33.8132 184.987 33.4226C184.492 33.032 184.115 32.5373 183.841 31.9514C183.568 31.3524 183.425 30.6493 183.425 29.8291C183.425 28.9307 183.581 28.1885 183.907 27.6026C184.219 27.0167 184.636 26.548 185.13 26.2095C185.638 25.8579 186.211 25.5975 186.849 25.4283C187.5 25.259 188.138 25.1158 188.802 25.0116C189.453 24.9075 190.104 24.8294 190.742 24.7643C191.38 24.6992 191.94 24.608 192.434 24.4908C192.929 24.3737 193.32 24.1914 193.606 23.957C193.893 23.7226 194.023 23.3841 194.01 22.9284C194.01 22.4727 193.932 22.1082 193.775 21.8217C193.619 21.5353 193.411 21.3139 193.163 21.1577C192.903 21.0014 192.617 20.8973 192.278 20.8452C191.94 20.7931 191.575 20.7671 191.184 20.7671C190.325 20.7671 189.648 20.9494 189.153 21.3139C188.659 21.6785 188.372 22.3035 188.294 23.1628H183.933C183.998 22.1602 184.245 21.3139 184.701 20.6239C185.156 19.9338 185.729 19.387 186.419 18.9833C187.109 18.5797 187.891 18.2802 188.75 18.111C189.609 17.9417 190.494 17.8506 191.393 17.8506C192.187 17.8506 192.994 17.9027 193.814 18.0198C194.635 18.137 195.377 18.3584 196.054 18.6839C196.731 19.0094 197.278 19.4781 197.707 20.064C198.137 20.6629 198.358 21.4311 198.358 22.3686V30.6363C198.358 31.3524 198.397 32.0425 198.475 32.6935C198.554 33.3445 198.697 33.8393 198.905 34.1648H194.478C194.4 33.9174 194.335 33.67 194.283 33.4096C194.231 33.1492 194.192 32.8888 194.179 32.6284C193.489 33.3445 192.669 33.8523 191.718 34.1387C190.768 34.4121 189.804 34.5554 188.828 34.5554ZM190.455 31.6649C191.315 31.6649 191.979 31.5217 192.447 31.2352C192.916 30.9488 193.268 30.6103 193.489 30.2067C193.71 29.803 193.854 29.3994 193.906 28.9958C193.958 28.5922 193.984 28.2536 193.984 28.0063V26.3787C193.801 26.548 193.58 26.6652 193.307 26.7563C193.046 26.8475 192.747 26.9256 192.421 26.9907C192.096 27.0558 191.757 27.1079 191.406 27.1469C191.054 27.186 190.716 27.2381 190.364 27.3032C190.013 27.3683 189.687 27.4464 189.375 27.5506C189.062 27.6547 188.802 27.7979 188.555 27.9672C188.32 28.1365 188.125 28.3578 187.982 28.6312C187.838 28.8916 187.76 29.2302 187.76 29.6468C187.76 30.0504 187.825 30.3889 187.982 30.6493C188.125 30.9097 188.32 31.105 188.568 31.2613C188.815 31.4175 189.101 31.5217 189.427 31.5868C189.765 31.6389 190.104 31.6649 190.455 31.6649Z" fill="#292B4B"></path> <path d="M205.571 25.2459L199.985 18.2671H204.803L209.932 24.9073V18.2671H214.046V24.9073L219.176 18.2671H223.993L218.187 25.0896L224.605 34.1516H219.567L214.984 27.303L214.033 28.5269V34.1516H209.919V28.7743L208.787 27.303L204.399 34.1516H199.36L205.571 25.2459Z" fill="#292B4B"></path> <path d="M230.595 29.4258V34.1521H225.777V29.4258H230.595Z" fill="#292B4B"></path> <path d="M46.0035 0H0.5V46H46.0035V0Z" fill="#232B41"></path> <path d="M12.3594 23.1755V12.2256L23.2307 23.1755H12.3594Z" fill="white"></path> <path d="M43.9855 2.03113V43.9819H2.53106V2.03113H43.9855ZM46.0035 0H0.5V46H46.0035V0Z" fill="#DF257A"></path> <path d="M15.5231 29.5822C17.292 29.5822 18.726 28.1481 18.726 26.3792C18.726 24.6103 17.292 23.1763 15.5231 23.1763C13.7543 23.1763 12.3203 24.6103 12.3203 26.3792C12.3203 28.1481 13.7543 29.5822 15.5231 29.5822Z" fill="white"></path> <path d="M34.0891 34.1124V12.2256L12.3594 34.1124H25.1837H34.0891Z" fill="#DF257A"></path> <path d="M235.708 21.3415H234.178L234.164 20.4604H235.503C235.715 20.4559 235.912 20.4245 236.091 20.3662C236.275 20.3034 236.422 20.2137 236.53 20.0971C236.644 19.9805 236.7 19.8371 236.7 19.6667C236.7 19.4424 236.66 19.2676 236.58 19.142C236.504 19.012 236.375 18.92 236.19 18.8662C236.006 18.8079 235.756 18.7788 235.439 18.7788H234.497V23.615H233.462V17.8976H235.439C235.907 17.8976 236.311 17.9649 236.651 18.0994C236.996 18.2295 237.26 18.4245 237.445 18.6846C237.634 18.9402 237.728 19.2608 237.728 19.6465C237.728 19.8886 237.669 20.1039 237.551 20.2922C237.433 20.4805 237.258 20.6442 237.026 20.7832C236.8 20.9177 236.521 21.0276 236.19 21.1128C236.176 21.1128 236.16 21.1285 236.141 21.1599C236.126 21.1868 236.112 21.2002 236.098 21.2002C236.018 21.2451 235.966 21.2787 235.942 21.3011C235.923 21.3191 235.902 21.3303 235.878 21.3348C235.86 21.3393 235.803 21.3415 235.708 21.3415ZM235.638 21.3415L235.786 20.6487C236.523 20.6487 237.026 20.8034 237.296 21.1128C237.565 21.4177 237.7 21.8056 237.7 22.2764V22.6531C237.7 22.819 237.709 22.9782 237.728 23.1307C237.747 23.2787 237.778 23.4042 237.82 23.5074V23.615H236.757C236.71 23.4984 236.682 23.3325 236.672 23.1172C236.667 22.902 236.665 22.745 236.665 22.6464V22.2832C236.665 21.9648 236.587 21.7294 236.431 21.5769C236.275 21.42 236.011 21.3415 235.638 21.3415ZM231.343 20.837C231.343 21.4289 231.452 21.9827 231.669 22.4984C231.887 23.0096 232.187 23.458 232.569 23.8437C232.952 24.2248 233.396 24.523 233.901 24.7383C234.412 24.949 234.955 25.0544 235.531 25.0544C236.112 25.0544 236.653 24.949 237.154 24.7383C237.659 24.523 238.104 24.2248 238.486 23.8437C238.874 23.458 239.174 23.0096 239.386 22.4984C239.603 21.9827 239.712 21.4289 239.712 20.837C239.712 20.2406 239.603 19.6891 239.386 19.1824C239.174 18.6712 238.874 18.225 238.486 17.8438C238.104 17.4627 237.659 17.1667 237.154 16.956C236.653 16.7407 236.112 16.6331 235.531 16.6331C234.955 16.6331 234.412 16.7407 233.901 16.956C233.396 17.1667 232.952 17.4627 232.569 17.8438C232.187 18.225 231.887 18.6712 231.669 19.1824C231.452 19.6891 231.343 20.2406 231.343 20.837ZM230.5 20.837C230.5 20.124 230.63 19.4626 230.89 18.8528C231.15 18.2429 231.511 17.7116 231.974 17.2586C232.437 16.8013 232.971 16.447 233.575 16.1959C234.185 15.9403 234.837 15.8125 235.531 15.8125C236.226 15.8125 236.875 15.9403 237.48 16.1959C238.089 16.447 238.623 16.8013 239.081 17.2586C239.544 17.7116 239.906 18.2429 240.166 18.8528C240.43 19.4626 240.562 20.124 240.562 20.837C240.562 21.55 240.43 22.2114 240.166 22.8213C239.906 23.4311 239.544 23.9647 239.081 24.4221C238.623 24.8795 238.089 25.236 237.48 25.4916C236.875 25.7472 236.226 25.875 235.531 25.875C234.837 25.875 234.185 25.7472 233.575 25.4916C232.971 25.236 232.437 24.8795 231.974 24.4221C231.511 23.9647 231.15 23.4311 230.89 22.8213C230.63 22.2114 230.5 21.55 230.5 20.837Z" fill="#292B4B"></path> </svg> 